<svg width="142" height="96" viewBox="0 0 142 96" fill="none" xmlns="http://www.w3.org/2000/svg">
<path d="M5.04 8H11L15.56 36H11.16L10.36 30.44V30.52H5.36L4.56 36H0.48L5.04 8ZM9.84 26.72L7.88 12.88H7.8L5.88 26.72H9.84ZM17.6947 8H22.0947V32H29.3347V36H17.6947V8ZM31.4447 8H35.8447V32H43.0847V36H31.4447V8ZM51.5947 36.4C49.4614 36.4 47.8347 35.8 46.7147 34.6C45.5947 33.3733 45.0347 31.6267 45.0347 29.36V8H49.4347V29.68C49.4347 30.64 49.6214 31.3333 49.9947 31.76C50.3947 32.1867 50.9547 32.4 51.6747 32.4C52.3947 32.4 52.9414 32.1867 53.3147 31.76C53.7147 31.3333 53.9147 30.64 53.9147 29.68V8H58.1547V29.36C58.1547 31.6267 57.5947 33.3733 56.4747 34.6C55.3547 35.8 53.728 36.4 51.5947 36.4ZM61.2884 8H67.8084C70.0751 8 71.7284 8.53333 72.7684 9.6C73.8084 10.64 74.3284 12.2533 74.3284 14.44V16.16C74.3284 19.0667 73.3684 20.9067 71.4484 21.68V21.76C72.5151 22.08 73.2618 22.7333 73.6884 23.72C74.1418 24.7067 74.3684 26.0267 74.3684 27.68V32.6C74.3684 33.4 74.3951 34.0533 74.4484 34.56C74.5018 35.04 74.6351 35.52 74.8484 36H70.3684C70.2084 35.5467 70.1018 35.12 70.0484 34.72C69.9951 34.32 69.9684 33.6 69.9684 32.56V27.44C69.9684 26.16 69.7551 25.2667 69.3284 24.76C68.9284 24.2533 68.2218 24 67.2084 24H65.6884V36H61.2884V8ZM67.2884 20C68.1684 20 68.8218 19.7733 69.2484 19.32C69.7018 18.8667 69.9284 18.1067 69.9284 17.04V14.88C69.9284 13.8667 69.7418 13.1333 69.3684 12.68C69.0218 12.2267 68.4618 12 67.6884 12H65.6884V20H67.2884ZM77.4213 8H89.4213V12H81.8213V19.4H87.8613V23.4H81.8213V32H89.4213V36H77.4213V8ZM5.04 56H11L15.56 84H11.16L10.36 78.44V78.52H5.36L4.56 84H0.48L5.04 56ZM9.84 74.72L7.88 60.88H7.8L5.88 74.72H9.84ZM17.6947 56H24.4147C26.6014 56 28.2414 56.5867 29.3347 57.76C30.428 58.9333 30.9747 60.6533 30.9747 62.92V77.08C30.9747 79.3467 30.428 81.0667 29.3347 82.24C28.2414 83.4133 26.6014 84 24.4147 84H17.6947V56ZM24.3347 80C25.0547 80 25.6014 79.7867 25.9747 79.36C26.3747 78.9333 26.5747 78.24 26.5747 77.28V62.72C26.5747 61.76 26.3747 61.0667 25.9747 60.64C25.6014 60.2133 25.0547 60 24.3347 60H22.0947V80H24.3347ZM40.3047 84.4C38.1447 84.4 36.4914 83.7867 35.3447 82.56C34.198 81.3333 33.6247 79.6 33.6247 77.36V62.64C33.6247 60.4 34.198 58.6667 35.3447 57.44C36.4914 56.2133 38.1447 55.6 40.3047 55.6C42.4647 55.6 44.118 56.2133 45.2647 57.44C46.4114 58.6667 46.9847 60.4 46.9847 62.64V77.36C46.9847 79.6 46.4114 81.3333 45.2647 82.56C44.118 83.7867 42.4647 84.4 40.3047 84.4ZM40.3047 80.4C41.8247 80.4 42.5847 79.48 42.5847 77.64V62.36C42.5847 60.52 41.8247 59.6 40.3047 59.6C38.7847 59.6 38.0247 60.52 38.0247 62.36V77.64C38.0247 79.48 38.7847 80.4 40.3047 80.4ZM49.9603 56H56.4803C58.747 56 60.4003 56.5333 61.4403 57.6C62.4803 58.64 63.0003 60.2533 63.0003 62.44V64.16C63.0003 67.0667 62.0403 68.9067 60.1203 69.68V69.76C61.187 70.08 61.9336 70.7333 62.3603 71.72C62.8136 72.7067 63.0403 74.0267 63.0403 75.68V80.6C63.0403 81.4 63.067 82.0533 63.1203 82.56C63.1736 83.04 63.307 83.52 63.5203 84H59.0403C58.8803 83.5467 58.7736 83.12 58.7203 82.72C58.667 82.32 58.6403 81.6 58.6403 80.56V75.44C58.6403 74.16 58.427 73.2667 58.0003 72.76C57.6003 72.2533 56.8936 72 55.8803 72H54.3603V84H49.9603V56ZM55.9603 68C56.8403 68 57.4936 67.7733 57.9203 67.32C58.3736 66.8667 58.6003 66.1067 58.6003 65.04V62.88C58.6003 61.8667 58.4136 61.1333 58.0403 60.68C57.6936 60.2267 57.1336 60 56.3603 60H54.3603V68H55.9603ZM66.0931 56H71.6131L75.8931 72.76H75.9731V56H79.8931V84H75.3731L70.0931 63.56H70.0131V84H66.0931V56Z" fill="#EFECEC"/>
<rect x="41" y="44" width="55" height="3" fill="#A61A1A"/>
</svg>
